<?xml version="1.0" encoding="UTF-8" standalone="no"?>
<!-- Created with Inkscape (http://www.inkscape.org/) -->

<svg
   width="210mm"
   height="297mm"
   viewBox="0 0 210 297"
   version="1.1"
   id="svg1"
   inkscape:version="1.4 (86a8ad7, 2024-10-11)"
   sodipodi:docname="dibujogeek.svg"
   xmlns:inkscape="http://www.inkscape.org/namespaces/inkscape"
   xmlns:sodipodi="http://sodipodi.sourceforge.net/DTD/sodipodi-0.dtd"
   xmlns="http://www.w3.org/2000/svg"
   xmlns:svg="http://www.w3.org/2000/svg">
  <sodipodi:namedview
     id="namedview1"
     pagecolor="#505050"
     bordercolor="#eeeeee"
     borderopacity="1"
     inkscape:showpageshadow="0"
     inkscape:pageopacity="0"
     inkscape:pagecheckerboard="0"
     inkscape:deskcolor="#505050"
     inkscape:document-units="mm"
     inkscape:zoom="0.65477694"
     inkscape:cx="397.08179"
     inkscape:cy="561.25984"
     inkscape:window-width="1920"
     inkscape:window-height="974"
     inkscape:window-x="-11"
     inkscape:window-y="-11"
     inkscape:window-maximized="1"
     inkscape:current-layer="layer1" />
  <defs
     id="defs1" />
  <g
     inkscape:label="Capa 1"
     inkscape:groupmode="layer"
     id="layer1">
    <path
       style="fill:#030708"
       d="m 95.494927,211.65656 c -6.81929,-5.97711 -13.35183,-11.50573 -19.32043,-16.3513 -3.85383,-3.12869 -7.25135,-6.01976 -7.55006,-6.4246 -0.3938,-0.53371 -0.57321,-1.26107 -0.65265,-2.64583 -0.12002,-2.09228 0.70871,-9.18581 1.07317,-9.18581 0.4526,0 0.52147,0.82175 0.24891,2.96986 -0.1528,1.20423 -0.35695,3.39073 -0.45368,4.8589 -0.17586,2.66938 -0.17586,2.66938 2.03802,4.54588 1.21763,1.03207 7.72713,6.52702 14.46555,12.21099 l 12.25168,10.33451 8.914993,-0.14392 c 4.90324,-0.0792 9.27752,-0.19794 9.7206,-0.26397 0.80687,-0.12022 2.8405,-2.1086 20.03033,-19.58462 4.69635,-4.77454 4.69635,-4.77454 4.69635,-6.03011 0,-0.69056 -0.35718,-2.67038 -0.79375,-4.39961 -0.90168,-3.57155 -0.94318,-3.96874 -0.4147,-3.96874 0.45608,0 0.50104,0.13974 1.23432,3.83645 0.69819,3.51979 0.77521,5.61215 0.23471,6.37618 -0.21608,0.30544 -4.27323,4.59169 -9.01589,9.525 -4.74267,4.93331 -9.78236,10.2347 -11.19932,11.78087 -1.41696,1.54617 -2.86249,2.94162 -3.21228,3.101 -0.92469,0.42131 -2.9739,0.53922 -12.32441,0.70911 l -8.371523,0.15211 z m 6.569033,-16.67028 c -3.872843,-0.2622 -4.762883,-0.58778 -3.917603,-1.43306 0.38265,-0.38265 0.58224,-0.38981 1.84264,-0.0662 0.958173,0.24606 2.905033,0.35468 6.043713,0.3372 4.09648,-0.0228 4.9047,-0.10274 7.01146,-0.69334 1.30969,-0.36716 2.8575,-0.86452 3.43958,-1.10526 1.05834,-0.43771 1.05834,-0.43771 0.13795,0.36623 -1.08923,0.95142 -3.11463,1.75313 -5.68522,2.25038 -2.74544,0.53106 -4.88441,0.61399 -8.87252,0.344 z m 2.77813,-12.54964 c -1.20965,-0.30231 -4.12852,-1.53005 -4.39181,-1.8473 -0.15618,-0.18818 -0.20715,-0.46642 -0.11327,-0.61831 0.30094,-0.48694 1.65959,-0.29746 3.71133,0.51757 2.43313,0.96654 3.61903,0.99388 5.73941,0.13229 1.8682,-0.75911 1.80121,-0.74423 1.80121,-0.4002 0,0.14369 -0.81835,0.67337 -1.81855,1.17706 -1.75689,0.88476 -3.81179,1.31793 -4.92832,1.03889 z m -28.839593,-5.51469 c -3.7129,-0.68941 -6.88971,-2.29113 -8.67048,-4.37156 -1.50185,-1.75457 -3.059832,-6.44269 -4.438062,-13.35451 -0.26186,-1.31324 -0.51184,-1.77502 -1.47474,-2.7243 -0.63768,-0.62867 -1.16177,-1.22678 -1.16463,-1.32915 -0.003,-0.10236 -0.17091,-1.12641 -0.37343,-2.27565 -0.57974,-3.28986 -0.33611,-3.50982 5.14113,-4.64179 6.633822,-1.37098 10.129202,-1.7127 17.594802,-1.72011 6.75412,-0.007 7.46843,0.0411 13.09687,0.87653 5.514263,0.81847 6.294463,0.87348 10.583333,0.74618 2.86129,-0.0849 5.84319,-0.34613 7.80521,-0.68372 7.77865,-1.33839 16.91538,-1.4022 25.13542,-0.17554 5.18558,0.77383 9.32944,1.72377 10.30344,2.36196 0.78212,0.51246 0.81584,0.95286 0.29571,3.86211 -0.30755,1.72023 -0.47301,2.0794 -1.27982,2.77812 -1.23648,1.07081 -1.33559,1.31357 -2.16413,5.30038 -1.81898,8.7527 -3.49334,11.75055 -7.68437,13.7585 -3.29566,1.57897 -4.73285,1.84202 -10.05416,1.84024 -4.16339,-10e-4 -5.02777,-0.0776 -6.8712,-0.60543 -2.88901,-0.82726 -4.4093,-1.71662 -6.19185,-3.62218 -3.04472,-3.25481 -5.50661,-8.50483 -6.7903,-14.48041 -0.49393,-2.29927 -1.16256,-3.46891 -2.49713,-4.36828 -1.01702,-0.68536 -2.04328,-0.62622 -3.18182,0.18336 -1.05281,0.74862 -1.64141,2.02183 -2.28576,4.94429 -1.823953,8.2725 -6.187753,15.01716 -10.843083,16.75894 -3.38106,1.26501 -9.89088,1.70332 -13.99095,0.94202 z m 9.934,-2.38449 c 4.22523,-1.0822 7.46085,-3.4312 9.17999,-6.66451 1.85405,-3.48704 3.31324,-8.07759 3.66385,-11.52635 0.58007,-5.70565 -3.69225,-7.5872 -16.51933,-7.27522 -8.86523,0.21563 -13.15548,1.13518 -14.65458,3.14099 -1.20161,1.60776 -1.35515,2.58669 -1.17604,7.49805 0.37839,10.37587 2.9199,13.93087 10.89503,15.23967 1.93394,0.31738 6.64166,0.0918 8.61108,-0.41263 z m -5.56232,-9.97298 c -3.50954,-1.81416 -2.62812,-6.75779 1.29878,-7.2845 1.12672,-0.15113 1.12672,-0.15113 0.94595,1.67302 l -0.18077,1.82415 0.9564,-1.38906 c 0.52602,-0.76399 1.06171,-1.38907 1.19043,-1.38907 0.44435,0 1.58341,1.60565 1.74173,2.45519 0.38854,2.08496 -1.33229,4.28031 -3.58218,4.56995 -0.92835,0.11951 -1.44293,0.0197 -2.37034,-0.45968 z m 52.116863,10.36263 c 4.31502,-0.66697 7.41544,-2.46244 8.9002,-5.15413 1.17998,-2.13915 1.62732,-4.22707 1.99462,-9.30962 0.4,-5.53526 0.17876,-6.72282 -1.59322,-8.55188 -1.36924,-1.41335 -1.86076,-1.59733 -6.16577,-2.30793 -4.03104,-0.66538 -15.93358,-0.66258 -18.77377,0.004 -2.4618,0.57813 -4.63749,1.84422 -5.32612,3.0994 -0.4388,0.79981 -0.48836,1.28672 -0.36355,3.57188 0.28766,5.26699 3.02081,12.05308 5.92261,14.70517 3.63027,3.31785 9.58603,4.84215 15.405,3.94271 z m -6.84263,-10.34122 c -1.45441,-0.73855 -2.15092,-1.85147 -2.15221,-3.43888 -0.002,-2.05523 1.81839,-3.94174 3.80289,-3.94174 0.76942,0 0.76942,0 0.60653,1.65365 -0.17937,1.82087 -0.18884,1.8224 1.2931,-0.20966 0.69629,-0.95477 1.23716,-0.76264 1.98616,0.70552 1.75918,3.44828 -2.01844,7.01756 -5.53647,5.23111 z m -62.481225,10.7002 c -0.46055,-0.38753 -1.13772,-1.3698 -1.50481,-2.18281 -0.36709,-0.81302 -1.35747,-2.9665 -2.20086,-4.78551 -4.6026,-9.92692 -4.60091,-9.91995 -2.70891,-11.18712 1.04169,-0.69767 1.6551,-0.76481 1.6551,-0.18114 0,0.1332 -0.35546,0.42599 -0.78992,0.65066 -0.43445,0.22466 -0.85704,0.67592 -0.93908,1.0028 -0.10084,0.40178 0.84666,2.99319 2.92463,7.99883 3.46625,8.34993 3.80204,8.85972 5.83562,8.85972 0.734002,0 1.138392,0.10303 1.038542,0.26459 -0.0899,0.14552 -0.68314,0.26458 -1.318232,0.26458 -0.86453,0 -1.36514,-0.17707 -1.99208,-0.7046 z m 80.039485,0.44002 c -0.0989,-0.15999 0.26622,-0.26459 0.92357,-0.26459 1.4741,0 2.48617,-0.57913 3.03566,-1.7371 0.25229,-0.53167 1.75396,-4.07424 3.33703,-7.87238 2.72794,-6.54493 2.85716,-6.93798 2.47354,-7.52346 -0.22262,-0.33977 -0.69392,-0.7277 -1.04734,-0.86206 -0.4251,-0.16163 -0.58992,-0.38149 -0.48702,-0.64965 0.19975,-0.52053 0.24976,-0.51462 1.39062,0.1644 1.16261,0.69196 1.61873,1.22224 1.61873,1.88189 0,0.4069 -3.32842,7.89158 -6.53794,14.702 -0.40718,0.864 -0.98679,1.60719 -1.49526,1.91724 -0.88116,0.5373 -2.93387,0.69307 -3.21159,0.24371 z m 4.04917,-29.33927 c -1.41097,-0.38002 -2.61951,-0.75047 -2.68565,-0.82323 -0.0661,-0.0728 -0.25915,-1.50151 -0.42892,-3.175 -0.64679,-6.37582 -1.99784,-11.63686 -4.04276,-15.74271 -2.74757,-5.51667 -5.64895,-7.9937 -10.086,-8.61083 -4.1893,-0.58268 -7.93138,0.57654 -14.19935,4.39868 -6.12307,3.73377 -10.76073,5.39293 -15.6542,5.60039 -3.308993,0.14029 -6.114343,-0.0855 -5.981433,-0.48139 0.0447,-0.13306 0.66845,-0.62966 1.38616,-1.10355 0.71772,-0.4739 1.35248,-1.00973 1.41057,-1.19073 0.20603,-0.64192 -1.43892,-0.94545 -5.75822,-1.06252 -3.80874,-0.10323 -4.66855,-0.0462 -6.74042,0.44742 -6.87048,1.63677 -11.06361,6.08185 -15.49144,16.42232 -0.90353,2.11005 -1.75307,3.95552 -1.88787,4.10104 -0.13479,0.14552 -1.22213,0.46418 -2.416322,0.70813 -1.66444,0.34002 -2.24378,0.3709 -2.48202,0.13229 -0.4283,-0.42895 -2.03615,-4.41509 -2.68689,-6.66125 -1.09787,-3.78954 -2.43097,-11.59289 -2.04622,-11.97764 0.0741,-0.0741 0.52489,0.16192 1.00179,0.52445 1.13767,0.86481 2.30045,1.45362 3.10008,1.56982 0.64548,0.0938 0.64548,0.0938 0.67412,-5.59475 0.0307,-6.10156 0.232,-7.53329 1.6,-11.38121 0.80237,-2.25689 1.54707,-3.64768 3.232652,-6.03724 1.18206,-1.67574 1.18206,-1.67574 1.71014,-0.79375 0.50802,0.84849 1.73028,2.04336 2.1104,2.0631 0.10077,0.005 1.08422,-1.11071 2.18544,-2.47988 4.31968,-5.370704 9.42624,-9.080108 15.11073,-10.976422 4.90744,-1.637094 8.80377,-1.932786 19.959173,-1.514694 6.75468,0.253158 9.80991,0.02801 12.80703,-0.943785 3.33628,-1.081762 5.67855,-3.10221 7.22682,-6.233853 0.82066,-1.659946 1.00484,-1.874034 1.37114,-1.593773 3.64808,2.791228 8.02628,7.07288 10.44028,10.210062 3.61831,4.702256 6.62619,10.978735 8.07464,16.849145 0.78313,3.17392 0.83871,3.3073 1.37842,3.3073 0.84201,0 1.95296,-0.68705 2.86994,-1.77487 0.8457,-1.00326 0.8457,-1.00326 0.68336,1.77487 -0.28835,4.93455 -1.75198,10.72069 -3.87443,15.31668 -0.56382,1.2209 -1.02512,2.2627 -1.02512,2.31511 0,0.0524 0.45779,0.0953 1.01731,0.0953 0.73664,0 1.46662,-0.2904 2.64584,-1.05256 l 1.62852,-1.05257 v 2.25362 c 0,3.13602 -0.45651,6.90554 -1.18323,9.77038 -0.72504,2.85819 -1.67089,5.17731 -2.0905,5.12572 -0.16398,-0.0202 -1.45258,-0.34759 -2.86356,-0.72761 z m -52.480213,-1.48665 c -2.63787,-0.48331 -8.59577,-0.91724 -13.23184,-0.96373 -4.3545,-0.0437 -4.32016,-0.058 1.20559,-0.50222 2.11005,-0.16965 5.20567,-0.53351 6.87916,-0.80858 5.16736,-0.84934 6.61806,-0.60475 7.51028,1.26625 0.75271,1.57845 0.75153,1.57895 -2.36319,1.00828 z m -23.47632,-0.41923 c 0.21349,-0.21911 1.34091,-0.35547 3.30729,-0.4 2.80874,-0.0636 2.8648,-0.0551 0.95767,0.14462 -1.11415,0.11669 -2.60243,0.29669 -3.30729,0.39999 -1.02645,0.15043 -1.21709,0.12165 -0.95767,-0.14461 z m 61.720903,-0.25936 c -1.38245,-0.11217 -5.6687,-0.19131 -9.525,-0.17587 -3.8563,0.0154 -7.27935,-0.0615 -7.60677,-0.1709 -0.52513,-0.17551 -0.59531,-0.37804 -0.59531,-1.71807 0,-2.11031 0.37904,-2.55257 2.16189,-2.52249 2.61671,0.0442 10.37381,1.85506 16.55738,3.86534 2.37354,0.77164 2.94185,1.04824 1.98438,0.9658 -0.25467,-0.0219 -1.59412,-0.13164 -2.97657,-0.24381 z"
       id="path25" />
  </g>
</svg>
